<svg xmlns="http://www.w3.org/2000/svg" viewBox="0 0 529.4 222.47"><defs><style>.cls-1{fill:#fff;}</style></defs><title>IEEBCBlanco</title><g id="Capa_2" data-name="Capa 2"><g id="Capa_1-2" data-name="Capa 1"><g id="Capa_2-2" data-name="Capa 2"><g id="Capa_2-2-2" data-name="Capa 2-2"><path class="cls-1" d="M116.58,222.47c0-.54-.51-.77-.83-1.1L77.42,180.9a25.24,25.24,0,0,1-5.33-8c-.63-1.59-.76-3,.52-4.41A28.94,28.94,0,0,0,75,165.05c2.42-3.53,7.47-3.77,10.35-2.24,3.13,1.66,6.36,2.59,9.71.87A11.87,11.87,0,0,0,101,149.05Q77.66,85.84,54.37,22.66a41.21,41.21,0,0,1-2.43-7.36C50.94,9,53.73,4,59.71,1.73A28.82,28.82,0,0,1,69.83.1q34.17,0,68.37,0c.92,0,1.15.27,1.12,1.15-.07,1.88-.09,3.76,0,5.63.06,1.09-.31,1.32-1.34,1.31H88.8a8.28,8.28,0,0,0-3.15.56,47.33,47.33,0,0,0-7.91,4,10.15,10.15,0,0,0-4.83,8.13A18.66,18.66,0,0,0,74.43,30Q99.81,88.27,125,146.62c1,2.22.92,4.68,1.36,7,.29,1.57.43,3.16.64,4.75a8.64,8.64,0,0,1-2.78,7.91,17.3,17.3,0,0,1-7.6,3.89,10.21,10.21,0,0,1-6.21-.71,10.55,10.55,0,0,0-11.52,3.29,13.49,13.49,0,0,0-3.07,7,7,7,0,0,0,1.85,5.7q17.07,18,34,36.15c.24.26.46.55.69.82Z"/><path class="cls-1" d="M49,.05c-2.71,3.11-4.78,6.25-5.69,10a17.47,17.47,0,0,0,.63,10.34q6.2,17,12.46,33.82Q66.3,81,76.17,107.74c4,10.7,8,21.36,11.77,32.13,1.08,3.11,2.15,6.25,3,9.45a8.85,8.85,0,0,1,.21,3.32,4.05,4.05,0,0,1-2.23,3.41c-2.43,1.21-4.86,1.81-7.53.49s-5.63-2.1-8.48-1.07c-9.1,3.28-13.78,11.24-9.89,20.44a10.39,10.39,0,0,0,2.12,2.72l9.18,10.11,9.22,10.07c-.23.39-.59.22-.87.22H20.07a23.38,23.38,0,0,1-9.23-1.74c-5.76-2.44-8.81-7-10.1-12.94A31,31,0,0,1,0,177.76V21.05a26.09,26.09,0,0,1,2.1-10.6C4.68,4.59,9.37,1.61,15.46.54A38.26,38.26,0,0,1,22.13.05H49Z"/><path class="cls-1" d="M159.72,198.77l15.5-7.48a28.65,28.65,0,0,0,8.22-5.49,12.81,12.81,0,0,0,4-10.61c-.25-2.8-.37-5.62-.82-8.61-.15.34-.2.59-.27.6-.33,0-.24-.31-.3-.47q-2.43-7.07-4.83-14.14-14.94-44-29.91-87.93a1.53,1.53,0,0,1,.46-1.92q13.28-12,26.5-24.14a1.36,1.36,0,0,0,.45-1.82Q173.11,23,167.62,9.13a1.4,1.4,0,0,0-1.58-1H155c-.89,0-1.19-.23-1.15-1.14.06-1.87.08-3.76,0-5.63,0-1.06.27-1.32,1.33-1.32H202.1a57.8,57.8,0,0,1,9.21.38c8.51,1.39,13.68,6.49,15.18,15a39.86,39.86,0,0,1,.56,7.15V176.2a34.1,34.1,0,0,1-1.21,10c-2.22,7.38-7.67,11.85-15.35,12.6-1.71.17-3.42.24-5.14.24H159.76Z"/><path class="cls-1" d="M357.55,112.24H319.78c-3.8,0-7.59.26-11.39.39-.39,0-1,.2-.91-.54.07-.55-.43-1.31.56-1.58,5.75-1.55,8.35-5.68,9.34-11.23A116.33,116.33,0,0,0,319,79.38c.09-20.21,0-40.42,0-60.63a17.64,17.64,0,0,0-.56-4.51c-1.06-4.11-4-6.23-7.86-7.45-1.28-.41-1.55-.91-1.3-2.23.12-.65.57-.44.91-.44h9c26.86.67,53.72.2,80.58.31,1.36,0,2,.31,2.38,1.69,2.48,8.28,5.11,16.52,7.64,24.79.12.37.79,1-.05,1.27s-1.49,1.07-2.41,0a61.93,61.93,0,0,0-18.61-14.85,68,68,0,0,0-28.15-7.28,90.6,90.6,0,0,0-12.33,0c-1.92.19-1.92.22-1.92,2.15V50.66c0,1,.22,1.26,1.22,1.33a89.31,89.31,0,0,0,19.61-.48,41.36,41.36,0,0,0,12.54-3.79,22.51,22.51,0,0,0,11.49-12.46c.46-1.21,1.29-.83,2-.83.95,0,.56.81.56,1.27V74.52c0,.41.3,1.13-.49,1.09s-1.6.52-1.95-.55c-2.55-7.7-8.3-11.91-15.62-14.49a53.87,53.87,0,0,0-16.22-2.77c-4.07-.13-8.15,0-12.23-.08-.74,0-.94.19-.93.93.09,8.86-.2,17.73.32,26.59A71.41,71.41,0,0,0,348,96c1.18,5.47,4.55,8.63,10,9.64a46.61,46.61,0,0,0,24.28-2.28c8.36-2.92,15.25-8.09,21.5-14.23A97.51,97.51,0,0,0,414.4,76.9c1-1.38,1.69-.14,2.52,0s.62.79.45,1.37q-4.74,16.42-9.44,32.86c-.26.93-.68,1.11-1.57,1.11Z"/><path class="cls-1" d="M469.3,112.24H438.84c-6.2,0-12.39.08-18.58.41-.4,0-1.09.29-1.05-.53,0-.59-.38-1.33.68-1.62,5.7-1.55,8.26-5.7,9.23-11.19a128.77,128.77,0,0,0,1.63-22.19c.07-19.33,0-38.67,0-58a23.78,23.78,0,0,0-.3-3.57c-.72-4.81-3.81-7.44-8.24-8.78a1.67,1.67,0,0,1-1.29-2,1.81,1.81,0,0,1,.09-.31c.17-.54.58-.34.89-.34h8.15c17.87.55,35.74.3,53.6.34h28.54a1.3,1.3,0,0,1,1.49,1.06v0c2.56,8.35,5.18,16.67,7.73,25,.15.49.92,1.11.09,1.65-1.21.77-1.82.66-2.72-.35a63.61,63.61,0,0,0-12.12-10.81A65,65,0,0,0,478,10.57a125.7,125.7,0,0,0-16-.64c-3.86,0-3.86.06-3.86,3.87V50.71c0,.94.19,1.27,1.21,1.34A89.31,89.31,0,0,0,479,51.57a41.42,41.42,0,0,0,12.55-3.79,22.91,22.91,0,0,0,11.42-12.43,2,2,0,0,1,2.34-.83c.39.28.2.74.2,1.11V74.7c0,.37.24,1-.48,1s-1.58.53-1.94-.58c-2.72-8.25-9.07-12.4-16.87-14.89a56,56,0,0,0-16.06-2.39c-3.68-.06-7.35,0-11,0-.86,0-1.05.24-1,1.06.09,8.87-.19,17.74.35,26.6a69.89,69.89,0,0,0,1.41,10.79c1.18,5.37,4.52,8.49,9.84,9.49,8.33,1.58,16.46.51,24.39-2.26,8.36-2.93,15.25-8.1,21.49-14.23A100,100,0,0,0,526.23,77c1-1.41,1.77-.07,2.63.09s.46.85.33,1.31c-3.19,10.85-6.39,21.76-9.49,32.7-.29,1-.75,1.23-1.72,1.23Q493.65,112.22,469.3,112.24Z"/><path class="cls-1" d="M260,4.12c8.39.27,16.79.67,25.18.21,5-.28,10-.07,15-.56.53,0,.67.06.71.6.06,1.06,0,1.73-1.37,2.09-5.28,1.43-8,4.89-8.27,10.36,0,.68-.08,1.36-.08,2,0,21.57-.15,43.14.12,64.71a90.28,90.28,0,0,0,1.42,16.33c1.06,5.31,4.14,8.91,9.37,10.47,1.21.36,1,1.07,1,1.88,0,.48-.38.41-.69.41-3.16,0-6.31-.1-9.47-.3-.64,0-1.28-.11-1.91-.11-6.36,0-12.72.08-19.07,0s-12.54.38-18.82.42c-.4,0-1.16.43-1.17-.49,0-.69-.31-1.41.85-1.73,5.66-1.55,8.49-5.52,9.45-11.14a135.23,135.23,0,0,0,1.62-22.56c.06-19.25,0-38.51,0-57.76a21.68,21.68,0,0,0-.53-4.75c-1-4.54-4.24-6.73-8.42-7.89a1.73,1.73,0,0,1-1.19-2.15l0-.11c.18-.41.46-.21.7-.2Z"/><path class="cls-1" d="M279.19,174.45c.47.21.9.39,1.32.59a6.3,6.3,0,0,1,3.73,6.73,7,7,0,0,1-5.55,5.89c-3,.64-6.06.19-9.09.29-.7,0-.46-.53-.46-.86V164.2c0-.75.14-1,1-1,2.35.13,4.71-.16,7.05.25a5.61,5.61,0,0,1,4.93,4.43,5.54,5.54,0,0,1-2.57,6.31Zm-4.91,11.1a20,20,0,0,0,3.1-.18c2.42-.4,4.08-1.94,4.26-4a4.55,4.55,0,0,0-3.56-4.86,22,22,0,0,0-5.95-.48c-.64,0-.55.44-.55.83v6C271.58,185.56,271.58,185.56,274.28,185.55Zm-.24-20v.06h-1.68c-.56,0-.8.09-.79.71v6.57c0,.33,0,.66.46.66a12.31,12.31,0,0,0,5.28-.68,4,4,0,0,0,2.31-4.09c-.21-1.62-1.21-2.62-3.1-3q-1.25-.17-2.52-.21Z"/><path class="cls-1" d="M353.48,175.42a12.9,12.9,0,0,1,12.57-12.83c4.44-.23,8.39.94,11.46,4.33.28.3,1.07.73.2,1.16-.61.31-1,1.68-2.06.53a11.63,11.63,0,0,0-14.47-2,10.55,10.55,0,0,0,4,19.44,11.53,11.53,0,0,0,10.51-3.35c1.1-1.12,1.46.32,2.08.63.79.4,0,.81-.26,1.08a13.75,13.75,0,0,1-11,4.15c-6.37-.23-11-3.74-12.59-9.37A14.94,14.94,0,0,1,353.48,175.42Z"/><path class="cls-1" d="M399.27,172.84c0-1,.05-1.71,0-2.41-.08-.91.51-.87,1.07-.79s1.37-.43,1.37.73v16.9c0,1.11-.8.64-1.28.67s-1.21.33-1.15-.67v-2.2c-5.78,4.45-11.07,4.38-14.83-.07a9.59,9.59,0,0,1,14.66-12.37l.17.21Zm.12,6a7.26,7.26,0,0,0-7.06-7.45H392a7.39,7.39,0,0,0-7.37,7.41h0a7.48,7.48,0,0,0,7.41,7.4,7.2,7.2,0,0,0,7.36-7.05v-.31Z"/><path class="cls-1" d="M305.23,172.71v-1.66c0-1.45.5-1.8,2-1.47.7.16.44.68.44,1v15.82c0,1.41-.68,1.87-2,1.48-.4-.12-.36-.37-.36-.64v-2.42c-2.56,2.71-5.46,3.91-9,3.4a9.28,9.28,0,0,1-6.12-3.63,9.55,9.55,0,0,1,1-12.83C295,168.05,300.14,168.34,305.23,172.71Zm.13,6.1a7.26,7.26,0,0,0-7.15-7.37H298a7.41,7.41,0,0,0-7.42,7.37,7.49,7.49,0,0,0,7.42,7.44,7.21,7.21,0,0,0,7.36-7.07,2.29,2.29,0,0,0,0-.37Z"/><path class="cls-1" d="M511.13,172.74v-2.43c0-1.1.8-.62,1.28-.66s1.14-.28,1.14.7v16.88c0,1.19-.84.65-1.34.71s-1.18.24-1.08-.73c.06-.66,0-1.34,0-2.32-2.81,3-6.05,4.12-9.85,3.26a9.22,9.22,0,0,1-5.5-3.79,9.6,9.6,0,0,1,1.33-12.61C501.06,168.05,505.92,168.39,511.13,172.74Zm.1,6.25a7.24,7.24,0,0,0-6.94-7.54h-.23a7.36,7.36,0,0,0-7.57,7.13v.06a7.43,7.43,0,0,0,7.24,7.62h0a7.2,7.2,0,0,0,7.45-6.94Z"/><path class="cls-1" d="M336.56,172.81a11.67,11.67,0,0,0,0-1.87c-.18-1.16.36-1.37,1.39-1.35.85,0,1.06.27,1.05,1.09,0,5.43-.05,10.86,0,16.29,0,1.07-.49,1-1.21,1s-1.4.13-1.24-1a14.44,14.44,0,0,0,0-2.08,9.76,9.76,0,0,1-8.05,3.5,9.3,9.3,0,0,1-7.41-4.26A9.58,9.58,0,0,1,323,171.34C327,168.05,332.35,168.55,336.56,172.81Zm-7.23-1.37a7.4,7.4,0,1,0,.53,0h-.53Z"/><path class="cls-1" d="M451,178.87a9.76,9.76,0,1,1-9.84-9.68h.13A9.51,9.51,0,0,1,451,178.5Zm-2.44,0a7.32,7.32,0,0,0-14.64-.07h0a7.32,7.32,0,1,0,14.64.07Z"/><path class="cls-1" d="M468.62,172.83c1.89-2.18,3.85-3.49,6.46-3.62,4-.21,6.82,2.11,7.27,6s.16,8,.21,12.08c0,1.16-.92.5-1.42.62s-1,.15-1-.71c.05-2.51,0-5,0-7.54,0-1.24-.05-2.47-.16-3.7-.29-3.56-2.93-5.38-6.39-4.44a6.63,6.63,0,0,0-4.88,6.37c-.11,3-.14,6-.07,9,0,1.12-.51,1.07-1.29,1.08s-1.2,0-1.19-1.05c.07-5.42.06-10.85,0-16.28,0-1,.44-1.06,1.21-1s1.38-.06,1.24,1A20,20,0,0,0,468.62,172.83Z"/><path class="cls-1" d="M352.69,142.88v-8c0-.66.17-.9.87-.89h6.58c.73,0,.83.29.84.92,0,2.41.06,2.41-2.34,2.41h-1.32c-1.77,0-1.7,0-1.79,1.76-.07,1.13.2,1.57,1.4,1.44a28.79,28.79,0,0,1,3.35,0c.52,0,.67.17.7.69.19,2.62.2,2.59-2.37,2.62-1,0-2.28-.44-2.88.21s-.07,1.92-.19,2.89c-.16,1.22.21,1.71,1.5,1.56a29,29,0,0,1,3.23,0c.51,0,.76.15.7.68v.24c.06,2.44.06,2.44-2.39,2.44h-5c-.7,0-.87-.22-.86-.88C352.71,148.23,352.69,145.55,352.69,142.88Z"/><path class="cls-1" d="M424.11,142.86V135c0-.8.23-1,1-1,2.07.05,4.15.06,6.23,0,.88,0,1,.29,1,1.09,0,2.25,0,2.25-2.27,2.25h-.84c-2.4,0-2.37,0-2.3,2.42,0,.66.25.79.84.77h3.72c.57,0,.83.08.85.77.09,2.54.12,2.52-2.46,2.54-.94,0-2.17-.42-2.75.19s-.13,1.82-.18,2.77v1c-.07.59.18.74.75.73h3.83c.63,0,.8.19.82.81.08,2.56.11,2.56-2.4,2.56-1.56,0-3.12,0-4.68,0-.89,0-1.23-.16-1.2-1.15C424.16,148.05,424.11,145.45,424.11,142.86Z"/><path class="cls-1" d="M407.22,139.87c-.11-2.09,1.31-1.1,2.07-1.26,1.07-.22.72.68.72,1.18v10.9c0,.94-.27,1.23-1.14,1.08a1.93,1.93,0,0,0-.48,0c-.79.09-1.44,0-1.19-1.06h-.3c-2.13,2.21-5.63,1.8-7.49-1.51a8.75,8.75,0,0,1,.62-9.06,4.38,4.38,0,0,1,6.08-1.11,4.51,4.51,0,0,1,.54.44C406.81,139.58,406.94,139.66,407.22,139.87Zm.11,5.26c0-2.26-1.28-3.87-3.06-3.85s-3,1.63-3,3.81,1.23,3.94,3,4S407.33,147.46,407.33,145.13Z"/><path class="cls-1" d="M501.21,139.71c.33-.3-.18-1,.37-1.08a8.62,8.62,0,0,1,2.38,0c.35,0,.19.55.19.85v11.36c0,.77-.26,1-1,.9a3,3,0,0,0-.84,0c-.91.17-1.23-.23-1.05-1.1H501c-2,2.18-5.64,2-7.54-1.54a8.67,8.67,0,0,1-.51-6.84C494.28,138.25,497.58,137.23,501.21,139.71Zm.24,5.27a6.32,6.32,0,0,0-.1-.83,3.15,3.15,0,0,0-2.89-2.87,3.07,3.07,0,0,0-2.94,2.66,6.44,6.44,0,0,0-.15,1.06c-.08,2.26,1.25,4.05,3,4.08s3.1-1.67,3.08-4.1Z"/><path class="cls-1" d="M386.91,139.74c.4-.33-.14-1,.45-1.12a10.77,10.77,0,0,1,2.27,0c.29,0,.22.38.22.61v11.85c0,.52-.16.74-.68.68a3.93,3.93,0,0,0-.84,0c-.83.1-1.53.06-1.21-1.31a6,6,0,0,1-2.78,1.56,4.68,4.68,0,0,1-4.76-2.34,8.72,8.72,0,0,1,0-9.08c1.77-2.62,4.56-3.06,7-1.1A3.59,3.59,0,0,0,386.91,139.74Zm.26,5.37a4,4,0,0,0-.34-1.9,2.82,2.82,0,0,0-5.33-.05,4.45,4.45,0,0,0-.37,2.1c0,2.17,1.31,3.81,3,3.82s3-1.58,3.05-3.76Z"/><path class="cls-1" d="M446.48,146.05c-1.2,0-2.4,0-3.6,0-1-.05-.95.39-.68,1.09a3.17,3.17,0,0,0,4.11,1.82,2.93,2.93,0,0,0,.89-.52c.29-.21.47-.73,1-.4a19.63,19.63,0,0,1,1.81,1.13c.24.19-.14.48-.29.69a5.69,5.69,0,0,1-8,1,5.54,5.54,0,0,1-.79-.74,8.14,8.14,0,0,1,.08-10.07,5.46,5.46,0,0,1,7.69-.54,5.53,5.53,0,0,1,1.23,1.54,8.73,8.73,0,0,1,1,4.25c0,.61-.22.74-.77.72Zm-4.29-2.54h5.34c.76,0,.49-.39.32-.75a3,3,0,0,0-2.9-1.71,2.94,2.94,0,0,0-2.76,2.5Z"/><path class="cls-1" d="M484.08,145.15a7.34,7.34,0,0,1-1.73,5A5.25,5.25,0,0,1,475,151a5.39,5.39,0,0,1-.76-.75,7.91,7.91,0,0,1-.28-9.64,5.27,5.27,0,0,1,7.34-1.31,5.2,5.2,0,0,1,1.27,1.25A7.11,7.11,0,0,1,484.08,145.15Zm-2.86,0a5.09,5.09,0,0,0-.24-1.64,2.85,2.85,0,0,0-5.49,0,5.09,5.09,0,0,0,0,3.4,2.83,2.83,0,0,0,5.44.15,4.54,4.54,0,0,0,.29-1.9Z"/><path class="cls-1" d="M344.21,144.87a7.9,7.9,0,0,1-.85,3.88,5.47,5.47,0,0,1-5,3.31,5.19,5.19,0,0,1-4.93-3.2,7.53,7.53,0,0,1,.49-8.15,5.3,5.3,0,0,1,7.33-1.55,5.12,5.12,0,0,1,1.67,1.73A7.3,7.3,0,0,1,344.21,144.87Zm-2.88.31a3.77,3.77,0,0,0-.24-1.66,2.87,2.87,0,0,0-2.62-2.1,2.8,2.8,0,0,0-2.83,2,4.9,4.9,0,0,0,.19,4,2.75,2.75,0,0,0,4.92.12A4.07,4.07,0,0,0,341.33,145.18Z"/><path class="cls-1" d="M277.42,140c1.61-1.53,3.15-2.23,4.93-1.34s2.21,2.68,2.19,4.58v7.54c0,.75-.14,1.14-1,1a3.35,3.35,0,0,0-1,0c-.72.1-.84-.25-.83-.89v-5.75a15.68,15.68,0,0,0-.2-2.26,1.71,1.71,0,0,0-1.32-1.54,1.85,1.85,0,0,0-2,.82,4.2,4.2,0,0,0-.77,2.47c0,2-.06,4.08,0,6.11,0,.86-.24,1.15-1.07,1a4.88,4.88,0,0,0-1.08,0c-.59.06-.73-.21-.72-.76V139.23c0-.49.11-.76.66-.7a4.87,4.87,0,0,0,1.08,0C277.22,138.47,277.74,138.66,277.42,140Z"/><path class="cls-1" d="M429,164.76a15.44,15.44,0,0,0-2.34-.39c-1.06.06-1.76.49-1.77,1.66v.12c-.28,3.37-.28,3.41,3,3.45.87,0,.93.38.95,1.07s-.18,1.13-1,1h-.12c-.94.09-2.22-.43-2.73.22s-.18,1.83-.18,2.78c0,4.11-.05,8.22,0,12.33,0,1.1-.55,1-1.24,1s-1.24.07-1.22-1c.07-4.63,0-9.26,0-13.89,0-1.1-.18-1.66-1.38-1.42-.91.18-1.12-.21-1.12-1.09s.34-1.07,1-.94c1.28.24,1.55-.35,1.45-1.5a13.69,13.69,0,0,1,.09-2.86,3.27,3.27,0,0,1,3.34-3.18H426a4.77,4.77,0,0,1,1.07.06C429.28,162.63,429.22,162.05,429,164.76Z"/><path class="cls-1" d="M323.94,143.58a24,24,0,0,1-.34,4.79,4.38,4.38,0,0,1-4.6,3.68,4.29,4.29,0,0,1-4.5-3.67c-.63-3.07-.23-6.2-.32-9.31,0-.36.15-.45.49-.5,2-.33,2.28-.11,2.3,1.94s-.1,4.15.11,6.22c.16,1.48.84,2.27,2,2.27s1.92-.74,2-2.24c.12-2.35.12-4.71.09-7.06,0-.84.11-1.2,1.08-1.15,1.72.08,1.73,0,1.73,1.69Z"/><path class="cls-1" d="M459,152.05c-4.24-.06-7-3.82-6.24-8.15s4.38-6.6,8.12-5.35a5.93,5.93,0,0,1,2.84,2.12c.32.42.28.68-.18.94s-.81.5-1.2.78-.64.24-1-.09a3.36,3.36,0,0,0-4.76,0l-.06.05a4.49,4.49,0,0,0,0,5.72,3.38,3.38,0,0,0,4.77,0l.06-.07c.41-.37.61-.3,1,0,1.81,1.34,1.8,1.89-.13,3.16A5.4,5.4,0,0,1,459,152.05Z"/><path class="cls-1" d="M309.33,192.53c.5.16.8.26,1.11.34a1.71,1.71,0,0,0,2.23-1,1.66,1.66,0,0,0,.11-.8c.05-.6,0-1.2,0-1.8V170.75c0-1,.37-1.15,1.24-1.15s1.23.14,1.22,1.15c-.05,6.59,0,13.18,0,19.77v1.2c-.31,3.52-2.84,4-5.43,2.94C308.86,194.29,309.52,193.33,309.33,192.53Z"/><path class="cls-1" d="M290.34,152.05a4.19,4.19,0,0,1-2.08-.45c-1.93-1-2.06-2.25-.43-3.65.33-.29.45-.14.65.08a3.35,3.35,0,0,0,1.59,1,1.19,1.19,0,0,0,1.45-.54,1,1,0,0,0-.36-1.36h0c-.66-.51-1.39-.92-2.08-1.39a4.37,4.37,0,0,1-2.24-4,3.71,3.71,0,0,1,2.56-3.4,4.31,4.31,0,0,1,4.44,1.66c.17.28.21.47,0,.72a10.1,10.1,0,0,1-1.18,1.35c-.76.61-.86-.49-1.38-.64s-1.21-.45-1.62.16.1,1.08.63,1.41a16.36,16.36,0,0,1,2.77,1.86,4.35,4.35,0,0,1,1,4.75A3.72,3.72,0,0,1,290.34,152.05Z"/><path class="cls-1" d="M366.36,152.05a4.26,4.26,0,0,1-2.07-.45c-1.93-1-2.07-2.26-.43-3.66.34-.28.46-.12.66.09a3.68,3.68,0,0,0,1.36.95,1.24,1.24,0,0,0,1.67-.48c.38-.62,0-1.1-.46-1.44-.66-.51-1.41-.9-2.1-1.38a4.29,4.29,0,0,1-2.12-4,3.68,3.68,0,0,1,2.67-3.3,4.33,4.33,0,0,1,4.32,1.69c.45.71-.26.89-.49,1.27-.49.76-1,1.43-1.9.33a1.5,1.5,0,0,0-.75-.36.91.91,0,0,0-1.12.45.82.82,0,0,0,.36,1.1l0,0a30.59,30.59,0,0,1,2.8,1.83,4.3,4.3,0,0,1,.57,6.06l-.19.21A3.62,3.62,0,0,1,366.36,152.05Z"/><path class="cls-1" d="M457.17,171.86l1.55-1.36a4.76,4.76,0,0,1,3.61-1.28c.63.06,1.53.09,1.64.67s-.57,1.07-.91,1.61c-.17.25-.41.15-.65.11a3.67,3.67,0,0,0-4.06,2,9.72,9.72,0,0,0-1.13,4.84c-.06,2.83-.09,5.66,0,8.49,0,1-.39,1.11-1.18,1s-1.38.25-1.37-1c.07-5.46.06-10.92,0-16.39,0-1.09.57-1,1.27-1s1.43-.17,1.27,1A8.23,8.23,0,0,0,457.17,171.86Z"/><path class="cls-1" d="M406.81,175.26c0-3.91.05-7.82,0-11.73,0-1.09.53-1,1.23-1s1.23-.09,1.22,1q-.08,11.73,0,23.45c0,1.09-.55,1-1.24,1s-1.25.1-1.22-1C406.86,183.05,406.81,179.16,406.81,175.26Z"/><path class="cls-1" d="M311,136.19a9.69,9.69,0,0,1,0,1.32c-.09.77.1,1.23,1,1.08.56-.1.68.22.65.7a11.37,11.37,0,0,0,0,1.43c0,.59-.2.82-.76.73-.79-.14-.91.26-.9.94v8.26c0,.87-.17,1.28-1.1,1.13a2.8,2.8,0,0,0-1,0c-.66.09-.79-.22-.78-.82v-8.62c0-.62-.09-1-.82-.89s-.66-.26-.64-.72a11.37,11.37,0,0,0,0-1.43c0-.46.05-.81.63-.72.73.12.86-.25.83-.88v-3c-.06-.83.28-1,1-1C311,133.77,311,133.74,311,136.19Z"/><path class="cls-1" d="M467,146.54v-4.19c0-.61-.07-1-.82-.9-.56.09-.66-.23-.64-.71s0-1,0-1.55.15-.68.62-.6c.87.15.85-.4.83-1v-3c0-.7.23-.85.88-.86,1.95,0,1.95,0,1.95,2v1.32c0,.84-.26,1.85,1.22,1.58.39-.07.42.26.42.55v1.56c0,.56-.18.84-.75.74-.77-.14-.92.22-.91.93v8.26c0,.85-.15,1.3-1.09,1.14a2.8,2.8,0,0,0-1,0c-.65.08-.81-.19-.8-.81C467,149.5,467,148.05,467,146.54Z"/><path class="cls-1" d="M393.09,146.65v-4.43c0-.42,0-.86-.59-.77-.85.13-.91-.35-.86-1v-1.32c0-.29,0-.62.42-.55,1.19.2,1-.58,1-1.31,0-.88.05-1.76,0-2.63s.25-.92.95-.91c1.83,0,1.83,0,1.83,1.82v2.15c0,.71.18,1,.87.87s.88.13.8.78a5.92,5.92,0,0,0,0,1.19c.07.64-.11,1-.83.89s-.85.26-.84.89v8.39c0,.82-.19,1.17-1,1a3.78,3.78,0,0,0-1,0c-.65.09-.81-.19-.8-.81C393.11,149.53,393.09,148.05,393.09,146.65Z"/><path class="cls-1" d="M372.91,146.56v-4.31c0-.32.14-.73-.43-.81-.34,0-.92.27-1-.34a18.74,18.74,0,0,1,0-2.37.43.43,0,0,1,.3-.13c1.27.23,1.07-.65,1.06-1.39a15.22,15.22,0,0,0,0-1.91c-.16-1.19.2-1.64,1.51-1.58,1,0,1.43.23,1.29,1.31a17.19,17.19,0,0,0,0,2.27c0,.76,0,1.5,1.15,1.29.45-.08.53.2.52.57a11.53,11.53,0,0,0,0,1.44c.07.67-.18,1-.86.85s-.82.29-.82.9v8.37c0,.82-.17,1.19-1,1.05a4.18,4.18,0,0,0-1,0c-.62.08-.83-.16-.81-.79C372.94,149.51,372.92,148.05,372.91,146.56Z"/><path class="cls-1" d="M329.89,146.62c0,1.4-.05,2.8,0,4.19,0,.82-.26,1.07-1,1h-.24c-1.2.21-1.62-.2-1.57-1.49.12-2.63,0-5.27.05-7.91,0-.59,0-1-.81-.92-.56.08-.67-.23-.65-.71s0-1,0-1.56c0-.35.05-.66.51-.59,1,.17,1-.45.94-1.14v-2.88c0-.61.14-.81.79-.82,2,0,2-.08,2,1.9a17.81,17.81,0,0,1,0,1.79c-.08.83.1,1.33,1.07,1.15.48-.09.62.18.6.62a11.53,11.53,0,0,0,0,1.44c.06.61-.16.91-.8.8-.83-.15-.88.33-.87,1C329.92,143.82,329.89,145.22,329.89,146.62Z"/><path class="cls-1" d="M296.88,146.66v-4.43c0-.42,0-.87-.59-.78-.83.13-.92-.34-.87-1v-1.32c0-.29,0-.62.42-.55,1.19.21,1-.58,1-1.31s.06-1.68,0-2.51.27-1.06,1.08-1c1.7.05,1.7,0,1.7,1.71v1.67c-.05.89-.12,1.75,1.23,1.48.39-.08.44.21.44.52a9.69,9.69,0,0,0,0,1.32c.07.73-.1,1.16-1,1s-.73.36-.73.88v8.39c0,.81-.17,1.19-1,1.05a4.18,4.18,0,0,0-1,0c-.63.08-.83-.17-.81-.8C296.91,149.54,296.89,148.1,296.88,146.66Z"/><path class="cls-1" d="M412.58,142.57v-8c0-.84.2-1.17,1.05-1a3.83,3.83,0,0,0,1.07,0c.59-.06.74.21.74.76v16.77c0,.59-.2.72-.76.74-2.08.08-2.08.11-2.08-2Z"/><path class="cls-1" d="M509.49,142.68c0,2.68-.05,5.35,0,8,0,.95-.28,1.21-1.14,1.07a3.84,3.84,0,0,0-.83,0c-.66.09-.9-.14-.9-.84V134.38c0-.64.13-1,.85-.9a3.83,3.83,0,0,0,1.07,0c.74-.1.95.18.93.92C509.46,137.17,509.49,139.93,509.49,142.68Z"/><path class="cls-1" d="M434.41,142.57v-8c0-.84.21-1.18,1-1a3,3,0,0,0,.84,0c.82-.13,1,.24,1,1V151c0,.7-.22.86-.88.87-2,0-2,0-2-1.91Z"/><path class="cls-1" d="M271.75,142.82v7.89c0,.81-.15,1.2-1,1.07a3.91,3.91,0,0,0-1.08,0c-.66.09-.78-.21-.78-.81V134.82c0-.71.24-.84.89-.84,2,0,2,0,2,1.91Z"/><path class="cls-1" d="M416.27,178.73c0,2.75-.06,5.51,0,8.26,0,1.11-.56,1-1.24,1s-1.24,0-1.23-1c.06-5.43.07-10.86,0-16.28,0-1.15.56-1,1.31-1.08s1.18.18,1.15,1.11C416.23,173.38,416.27,176.05,416.27,178.73Z"/><path class="cls-1" d="M488.09,140.1c.83-1.15,1.53-2,2.78-1.79.62.08.95.28.65,1a12.69,12.69,0,0,0-.49,1.59c-.08.32-.16.49-.56.38-1-.29-1.35.43-1.6,1.17a8.94,8.94,0,0,0-.3,3V151c0,.66-.16.88-.85.89-2,0-2,0-2-1.87V140c0-.5-.45-1.41.74-1.3C487.29,138.66,488.5,138.11,488.09,140.1Z"/><path class="cls-1" d="M487.41,178.82c0-2.76.06-5.51,0-8.27,0-1.17.67-.87,1.3-.92s1.16,0,1.15,1q-.09,8.26,0,16.54c0,1.12-.67.82-1.24.83s-1.25.25-1.21-.86C487.47,184.34,487.41,181.58,487.41,178.82Z"/><path class="cls-1" d="M302.5,145.14v-5.62c0-.71.14-1,.91-1,1.95,0,1.95,0,1.95,1.94v10.16c0,.85-.16,1.28-1.09,1.11a2.89,2.89,0,0,0-.72,0c-.81.13-1.11-.14-1.07-1C302.55,148.89,302.5,147.05,302.5,145.14Z"/><path class="cls-1" d="M303.92,133.18a2,2,0,0,1,1.8,2.16,1.93,1.93,0,0,1-1.76,2.09h-.08a2.17,2.17,0,0,1,0-4.25Z"/><path class="cls-1" d="M417.07,164.05a2,2,0,1,1-2-2A2,2,0,0,1,417.07,164.05Z"/><path class="cls-1" d="M488.57,166a1.91,1.91,0,0,1-1.92-1.89V164a2,2,0,0,1,3.92.07,1.91,1.91,0,0,1-1.86,1.94Z"/><path class="cls-1" d="M315.93,164.05a1.87,1.87,0,0,1-1.8,1.94h-.06a1.91,1.91,0,0,1-2-1.81v-.1a2,2,0,0,1,1.87-2,1.93,1.93,0,0,1,2,1.87Z"/></g></g></g></g></svg>